<?xml version="1.0" encoding="utf-8"?>
<!-- Generator: Adobe Illustrator 19.0.0, SVG Export Plug-In . SVG Version: 6.00 Build 0)  -->
<svg version="1.1" id="Layer_1" xmlns="http://www.w3.org/2000/svg" xmlns:xlink="http://www.w3.org/1999/xlink" x="0px" y="0px"
	 viewBox="0 0 500 500" style="enable-background:new 0 0 500 500;" xml:space="preserve">
<style type="text/css">
	.st0{clip-path:url(#XMLID_37_);}
	.st1{fill:#0C803D;}
	.st2{fill:#54B149;}
	.st3{fill:#CDD745;}
</style>
<g id="XMLID_1_">
	<g id="XMLID_2_">
		<defs>
			<path id="XMLID_3_" d="M411.2,229.2h17.1c1.5,0,2.3,1.7,1.3,2.8l-23.2,26.4c1.1,2.4,2.1,4.7,3.2,7.1c3.2,7.1,6.5,14.1,9.7,21.2
				c1,2.2,0.4,3.2-2,3.2c-5.5,0-11,0-16.5,0c-2.5,0-3-0.3-3.9-2.7c-2.7-7.1-5.5-14.2-8.2-21.3c-0.2-0.5-0.4-1-0.8-1.8
				c-1.2,6.9-2.4,13.4-3.5,20c-0.2,1.1-0.4,2.2-0.6,3.3c-0.3,1.5-1.4,2.4-2.9,2.4c-4.9,0-9.9,0-14.8,0c-1.8,0-2.6-0.9-2.3-2.7
				c2.1-12,4.2-24,6.3-36c2.2-12.6,4.4-25.3,6.6-37.9c0-0.3,0.1-0.5,0.2-0.8c0.4-1.9,2.1-3.2,4-3.2H395c1.3,0,2.3,1.1,2.2,2.4
				c0,0.2,0,0.4-0.1,0.6l-7.6,41.7l19.2-23.5C409.3,229.6,410.2,229.2,411.2,229.2z M349,289.9c2.1,0,3-0.8,3.4-2.8
				c1.6-9,3.2-17.9,4.7-26.9c0.8-4.6,1.9-9.2,1.8-13.9c-0.2-8.6-5-14.8-13.4-16.8c-8-1.9-16-1.6-24,0.1c-4.5,0.9-8.4,3.2-11.4,6.8
				c-2.8,3.6-4.5,7.7-5.4,12.1c-1.6,8.4-3.1,16.9-4.6,25.3c-0.8,4.4-1.6,8.9-2.3,13.3c-0.3,2.1,0.3,2.8,2.5,2.8c4.8,0,9.6,0,14.4,0
				c1.7,0,2.8-0.9,3.1-2.5c1.7-9.8,3.4-19.5,5.1-29.2c0.5-3.1,1.1-6.2,1.7-9.2c0.5-2.4,2-4.1,4.5-4.3c2.2-0.2,4.4-0.2,6.5,0
				c2.2,0.2,3.2,1.3,3.2,3.6c0,0.5,0,1.1-0.1,1.6c-1.2,6.7-2.4,13.3-3.5,20c-1,5.8-2.1,11.7-3,17.5c-0.3,1.8,0.5,2.6,2.2,2.6
				c2.4,0,4.8,0,7.3,0C344.2,289.9,346.6,289.9,349,289.9z M281.8,209.3c-0.8,0-1.6,0.3-2.2,0.9c-0.3,0.3-0.6,0.7-0.7,1.2
				c-0.5,3.2-1.2,6.4-1.7,9.6c-0.3,1.7,0.5,2.5,2.2,2.5c5.3,0,10.6,0,16,0c1.7,0,2.7-0.8,3-2.5c0.6-3.1,1.1-6.2,1.7-9.2v0
				c0.2-1.3-0.8-2.5-2.2-2.5L281.8,209.3z M282.3,289.9c2.5,0,3.5-0.8,4-3.3c3.2-18.2,6.4-36.5,9.6-54.7c0.3-1.7-0.5-2.7-2.2-2.7
				c-4.9,0-9.9,0-14.8,0c-1.7,0-2.8,1-3.1,2.7c-0.1,0.5-0.2,1-0.3,1.5c-2.1,11.5-4.1,23.1-6.1,34.7c-1.1,6.3-2.2,12.7-3.3,19
				c-0.3,1.9,0.5,2.7,2.3,2.7c2.4,0,4.8,0,7.3,0C277.8,289.9,280,289.9,282.3,289.9z M250.2,209.3c-1,0-2.1,0.5-2.6,1.3
				c-0.4,0.6-0.6,1.3-0.7,2.1c-0.5,3.2-1.1,6.4-1.7,9.6c-3.8,21.6-7.6,43.2-11.4,64.8c-0.3,1.9,0.5,2.8,2.3,2.8c4.8,0,9.7,0,14.5,0
				c1.9,0,2.9-0.8,3.2-2.7c0.9-4.7,1.7-9.5,2.5-14.2c2.1-12.1,4.3-24.2,6.4-36.2c1.4-8.2,2.9-16.4,4.4-24.6c0.2-1,0.1-1.9-0.6-2.5
				c-0.3-0.3-0.8-0.4-1.3-0.4L250.2,209.3z M217.4,209.3c-0.8,0-1.6,0.3-2.2,0.9c-0.3,0.3-0.6,0.7-0.7,1.2c-0.5,3.2-1.2,6.4-1.7,9.6
				c-0.3,1.7,0.5,2.5,2.2,2.5c5.3,0,10.6,0,16,0c1.7,0,2.7-0.9,3-2.5c0.6-3.1,1.1-6.2,1.7-9.2v0c0.2-1.3-0.8-2.5-2.2-2.5
				L217.4,209.3z M217.9,289.9c2.5,0,3.5-0.8,4-3.3c3.2-18.2,6.4-36.5,9.6-54.7c0.3-1.6-0.5-2.7-2.1-2.7c-5,0-10,0-15,0
				c-1.7,0-2.8,1-3.1,2.7c-0.1,0.5-0.2,1-0.3,1.5c-2.1,11.5-4.1,23.1-6.2,34.7c-1.1,6.3-2.2,12.6-3.3,18.9c-0.3,2,0.4,2.8,2.5,2.8
				c2.4,0,4.7,0,7.1,0C213.5,289.9,215.7,289.9,217.9,289.9z M184.6,244.1c0.5,0,9.2,0,13,0c1.9,0,2.8-0.8,3.2-2.6
				c0.5-2.7,1-5.4,1.4-8.1c0.7-4,0.5-4.2-3.5-4.2c-3.8,0-7.7,0-11.6,0c0.7-3.8,1.3-7.4,2-11.1c0.4-2.4-0.5-3.3-2.7-2.9
				c-4.9,0.8-9.8,1.7-14.7,2.5c-2.2,0.4-2.9,1.1-3.3,3.3c-0.9,5.2-1.8,10.3-2.7,15.5c-2.2,12.5-4.6,25.1-6.5,37.6
				c-1.1,7.5,1.7,13.7,10.2,15.7c7,1.6,13.9,0.8,20.9-0.3c1.4-0.2,2.1-1.2,2.3-2.5c0.5-2.7,0.9-5.3,1.4-8c0.4-2.4-0.1-3.1-2.6-3.1
				c-3.2,0-9.5,0-9.5,0s-1.1,0.1-1.9-0.8c-0.5-0.6-0.2-1.8-0.2-1.8L184.6,244.1z M140.5,209.3c-0.8,0-1.6,0.3-2.2,0.9
				c-0.3,0.3-0.6,0.7-0.7,1.2c-0.5,3.2-1.2,6.4-1.7,9.6c-0.3,1.7,0.5,2.5,2.2,2.5c5.3,0,10.6,0,16,0c1.7,0,2.7-0.9,3-2.5
				c0.6-3.1,1.1-6.2,1.7-9.2v0c0.2-1.3-0.8-2.5-2.2-2.5L140.5,209.3L140.5,209.3z M141.1,289.9c2.5,0,3.5-0.8,3.9-3.3
				c3.2-18.2,6.4-36.4,9.6-54.5c0.3-1.8-0.5-2.8-2.2-2.8c-4.9,0-9.8,0-14.7,0c-1.8,0-2.9,1-3.2,2.8c-2.1,11.7-4.1,23.3-6.2,35
				c-1.2,6.7-2.4,13.4-3.5,20.2c-0.3,1.9,0.4,2.8,2.4,2.8c2.4,0,4.7,0,7.1,0C136.5,289.9,138.8,289.9,141.1,289.9z M122.5,212.7
				c-6.3-1.5-12.8-1.6-19.2-0.8c-5.4,0.6-10.6,2.2-15.1,5.4c-6.4,4.4-10.1,10.8-12.6,17.9c-2.2,6.2-3,12.7-4.3,19.1
				c-1,5.2-1.6,10.5-0.8,15.8c0.9,6.1,3.5,11.2,8.4,15.1c4.5,3.5,9.7,5.1,15.3,5.5c5.9,0.4,11.7-0.1,17.5-1.6
				c1.9-0.5,2.9-1.4,3.2-3.4c0.6-3.8,1.4-7.6,2.1-11.5c0.4-2.4-0.1-2.9-2.5-2.8c-0.3,0-0.6,0-0.8,0.1c-4.5,0.5-9.1,0.9-13.6,0.8
				c-5.2-0.1-7.9-2.8-8.1-8c-0.2-4.3,0.7-8.4,1.5-12.5c0.9-4.6,1.4-9.2,3.2-13.5c2.4-5.9,5.8-8.1,12.1-8.1c4.5,0,8.9,0.5,13.3,0.9
				c2,0.2,2.6-0.3,3-2.4c0.5-2.5,1.3-7.1,1.7-9.6c0.3-2.2,0.6-3.3,0-4.5C125.9,213.3,124.1,213.1,122.5,212.7z"/>
		</defs>
		<clipPath id="XMLID_37_">
			<use xlink:href="#XMLID_3_"  style="overflow:visible;"/>
		</clipPath>
		<g id="XMLID_15_" class="st0">
			<rect id="XMLID_16_" x="58.4" y="183.5" class="st1" width="397.7" height="118.4"/>
			<polygon id="XMLID_17_" class="st2" points="354.2,301.9 411.4,183.5 373.6,183.5 			"/>
			<polygon id="XMLID_18_" class="st3" points="356.4,301.9 399,250.7 387.8,301.9 			"/>
		</g>
	</g>
</g>
</svg>
